
<svg xmlns="http://www.w3.org/2000/svg" viewBox="0 0 430.976 56.056">
  <defs>
    <style>
      .cls-1 {
        fill: #abaaac;
      }

      .cls-2 {
        fill: #183157;
      }
    </style>
  </defs>
  <g id="Symbol_1_1" data-name="Symbol 1 – 1" transform="translate(-1190.268 -240.944)">
    <path id="Path_28" data-name="Path 28" class="cls-1" d="M63.788,44.632q-.336-.672-.644-1.316T62.5,42h4.648q1.624,3.528,3.5,7.084a49.264,49.264,0,0,1,3.108,7.2,49.264,49.264,0,0,1,3.108-7.2q1.876-3.556,3.5-7.084h4.648q-2.856,5.6-5.628,11.144T73.756,64.288q-1.9-3.808-3.808-7.532T66.14,49.224q-1.9,3.808-3.808,7.532t-3.808,7.532q-2.856-5.6-5.628-11.144T47.268,42h4.648q1.624,3.528,3.5,7.084a49.263,49.263,0,0,1,3.108,7.2,41.76,41.76,0,0,1,2.492-5.908Q62.5,47.488,63.788,44.632ZM90.22,33.88a2.791,2.791,0,0,1,.9-2.128,2.874,2.874,0,0,1,2.016-.84,2.966,2.966,0,0,1,2.856,2.968,2.7,2.7,0,0,1-.9,2.1,2.861,2.861,0,0,1-1.96.812,2.925,2.925,0,0,1-2.016-.812A2.7,2.7,0,0,1,90.22,33.88ZM95.372,63H90.724V42h4.648Zm9.352-34.664h4.648V41.5h5.488v4.536h-5.488V63h-4.648V46.032h-4.7V41.5h4.7Zm16.8,0h4.648V41.5h5.488v4.536h-5.488V63h-4.648V46.032h-4.7V41.5h4.7ZM141.908,77H137.26q1.792-3.528,3.528-7t3.528-7L133.732,42h4.648q2.072,4.088,4.452,8.316a50.048,50.048,0,0,1,3.836,8.54q.728-2.128,1.708-4.284t2.1-4.256q1.12-2.1,2.268-4.2T154.9,42h4.648q-4.424,8.792-8.82,17.5T141.908,77Zm19.6-30.968V41.5h3.584V34.048a13.919,13.919,0,0,1,1.036-5.544,11.758,11.758,0,0,1,2.828-4.06,12.108,12.108,0,0,1,4.284-2.52,18.359,18.359,0,0,1,5.348-.98v4.424a10.063,10.063,0,0,0-6.356,2.464,8.14,8.14,0,0,0-2.492,6.384V41.5h6.552v4.536H169.74V63h-4.648V46.032Zm30.352,0A6.637,6.637,0,0,0,188,47.152a6.054,6.054,0,0,0-2.3,2.912,9.089,9.089,0,0,0-.392,1.96q2.632-.952,5.236-1.932t5.236-1.932a6.849,6.849,0,0,0-1.764-1.54A4.112,4.112,0,0,0,191.86,46.032Zm9.856,4.76q-3.808,1.4-7.588,2.8t-7.588,2.8a6.035,6.035,0,0,0,2.212,1.876,6.741,6.741,0,0,0,3.108.7,5.582,5.582,0,0,0,4.256-1.792l2.856,3.36a10.341,10.341,0,0,1-3.192,2.184,9.673,9.673,0,0,1-3.92.784,11.164,11.164,0,0,1-7.952-3.248,11.293,11.293,0,0,1-2.38-3.5,10.937,10.937,0,0,1,0-8.54,10.873,10.873,0,0,1,2.38-3.5,11.358,11.358,0,0,1,3.556-2.352,11.129,11.129,0,0,1,4.4-.868,8.209,8.209,0,0,1,3.332.7,9.531,9.531,0,0,1,2.856,1.932,12.773,12.773,0,0,1,2.212,2.94A15.163,15.163,0,0,1,201.716,50.792Zm15.4-4.76a6.637,6.637,0,0,0-3.864,1.12,6.054,6.054,0,0,0-2.3,2.912,9.089,9.089,0,0,0-.392,1.96q2.632-.952,5.236-1.932t5.236-1.932a6.849,6.849,0,0,0-1.764-1.54A4.112,4.112,0,0,0,217.116,46.032Zm9.856,4.76q-3.808,1.4-7.588,2.8t-7.588,2.8a6.035,6.035,0,0,0,2.212,1.876,6.741,6.741,0,0,0,3.108.7,5.582,5.582,0,0,0,4.256-1.792l2.856,3.36a10.341,10.341,0,0,1-3.192,2.184,9.673,9.673,0,0,1-3.92.784,11.164,11.164,0,0,1-7.952-3.248,11.293,11.293,0,0,1-2.38-3.5,10.937,10.937,0,0,1,0-8.54,10.873,10.873,0,0,1,2.38-3.5,11.358,11.358,0,0,1,3.556-2.352,11.129,11.129,0,0,1,4.4-.868,8.209,8.209,0,0,1,3.332.7,9.531,9.531,0,0,1,2.856,1.932,12.773,12.773,0,0,1,2.212,2.94A15.163,15.163,0,0,1,226.972,50.792Zm9.632,1.68a6.379,6.379,0,0,0,1.82,4.62,6.906,6.906,0,0,0,9.464,0,6.379,6.379,0,0,0,1.82-4.62,6.26,6.26,0,0,0-1.82-4.62,7.062,7.062,0,0,0-9.464,0A6.26,6.26,0,0,0,236.6,52.472Zm-4.7,0a10.451,10.451,0,0,1,.868-4.228,11.293,11.293,0,0,1,2.38-3.5,11.04,11.04,0,0,1,3.584-2.38,11.333,11.333,0,0,1,4.424-.868,8.984,8.984,0,0,1,2.8.42,12.623,12.623,0,0,1,2.24.952,9.593,9.593,0,0,1,1.512,1.008q.56.476.56.644a8.248,8.248,0,0,0-.28-.9,8.248,8.248,0,0,1-.28-.9V21h4.648V63h-4.088V60.7q0,.168-.5.616a7.254,7.254,0,0,1-1.4.924,12.148,12.148,0,0,1-2.212.868,10.5,10.5,0,0,1-3,.392,11.333,11.333,0,0,1-4.424-.868,11.04,11.04,0,0,1-3.584-2.38,11.2,11.2,0,0,1-2.38-3.528A10.649,10.649,0,0,1,231.9,52.472Zm28.672,7.616a2.791,2.791,0,0,1,.9-2.128,2.874,2.874,0,0,1,2.016-.84,2.966,2.966,0,0,1,2.856,2.968,2.7,2.7,0,0,1-.9,2.1,2.861,2.861,0,0,1-1.96.812,2.926,2.926,0,0,1-2.016-.812A2.7,2.7,0,0,1,260.572,60.088ZM275.3,52.472a6.379,6.379,0,0,0,1.82,4.62,6.906,6.906,0,0,0,9.464,0,6.379,6.379,0,0,0,1.82-4.62,6.26,6.26,0,0,0-1.82-4.62,7.062,7.062,0,0,0-9.464,0A6.26,6.26,0,0,0,275.3,52.472Zm-4.7.056a10.513,10.513,0,0,1,.868-4.2,11.2,11.2,0,0,1,2.38-3.528,11.419,11.419,0,0,1,3.584-2.408,11.026,11.026,0,0,1,4.424-.9,8.469,8.469,0,0,1,2.8.448,14.106,14.106,0,0,1,2.24.98A8.415,8.415,0,0,1,288.4,43.96q.56.5.56.672a7.838,7.838,0,0,1,.112-1.288A8.161,8.161,0,0,0,289.188,42h3.864V63h-4.088V60.7q0,.168-.5.616a7.255,7.255,0,0,1-1.4.924,12.148,12.148,0,0,1-2.212.868,10.5,10.5,0,0,1-3,.392,11.333,11.333,0,0,1-4.424-.868,11.04,11.04,0,0,1-3.584-2.38,11.294,11.294,0,0,1-2.38-3.5A10.451,10.451,0,0,1,270.6,52.528Zm28.56-18.648a2.791,2.791,0,0,1,.9-2.128,2.874,2.874,0,0,1,2.016-.84,2.966,2.966,0,0,1,2.856,2.968,2.7,2.7,0,0,1-.9,2.1,2.861,2.861,0,0,1-1.96.812,2.925,2.925,0,0,1-2.016-.812A2.7,2.7,0,0,1,299.156,33.88ZM304.308,63H299.66V42h4.648Zm23.8,0V35h6.1V63Zm0-32.76V23.8h6.1v6.44Zm32.928,10.528a80.6,80.6,0,0,0-9.576-.9,8.539,8.539,0,0,0-4.116.7,2.4,2.4,0,0,0-1.148,2.212,2.176,2.176,0,0,0,1.26,2.128,28.392,28.392,0,0,0,5.936,1.428q4.676.812,6.636,2.548t1.96,6.16q0,4.424-2.828,6.5t-8.26,2.072a49.714,49.714,0,0,1-8.624-.952l-1.736-.28.224-5.1a83.32,83.32,0,0,0,9.688.9,8.969,8.969,0,0,0,4.228-.728,2.561,2.561,0,0,0,1.26-2.408,2.4,2.4,0,0,0-1.2-2.324,23.884,23.884,0,0,0-5.768-1.4,15.341,15.341,0,0,1-6.692-2.38q-2.128-1.624-2.128-5.936a7.426,7.426,0,0,1,2.94-6.44,12.53,12.53,0,0,1,7.532-2.128,53.327,53.327,0,0,1,8.792.9l1.736.336ZM386.292,63h-6.1V35h6.048v1.736a15.587,15.587,0,0,1,7.728-2.352q5.6,0,7.644,3.164t2.044,10.444V63H397.6V48.16q0-4.536-.98-6.44t-4-1.9a13.876,13.876,0,0,0-5.488,1.12l-.84.336Zm25.984-24.976q2.912-3.64,9.632-3.64t9.6,3.64q2.884,3.64,2.884,10.92T431.6,59.92q-2.8,3.7-9.688,3.7t-9.688-3.7q-2.8-3.7-2.8-10.976T412.276,38.024Zm4.592,18.2q1.288,2.24,5.04,2.24t5.04-2.24q1.288-2.24,1.288-7.336t-1.372-7.224q-1.372-2.128-4.956-2.128t-4.956,2.128q-1.372,2.128-1.372,7.224T416.868,56.224ZM438.26,35h5.992l4.424,22.792h1.12l5.32-22.232h6.272l5.32,22.232h1.12L472.2,35h6.048l-5.936,28H462.62l-4.368-19.208L453.884,63H444.2Z" transform="translate(1143 220)"/>
    <path id="Path_29" data-name="Path 29" class="cls-2" d="M63.788,44.632q-.336-.672-.644-1.316T62.5,42h4.648q1.624,3.528,3.5,7.084a49.264,49.264,0,0,1,3.108,7.2,49.264,49.264,0,0,1,3.108-7.2q1.876-3.556,3.5-7.084h4.648q-2.856,5.6-5.628,11.144T73.756,64.288q-1.9-3.808-3.808-7.532T66.14,49.224q-1.9,3.808-3.808,7.532t-3.808,7.532q-2.856-5.6-5.628-11.144T47.268,42h4.648q1.624,3.528,3.5,7.084a49.263,49.263,0,0,1,3.108,7.2,41.76,41.76,0,0,1,2.492-5.908Q62.5,47.488,63.788,44.632ZM90.22,33.88a2.791,2.791,0,0,1,.9-2.128,2.874,2.874,0,0,1,2.016-.84,2.966,2.966,0,0,1,2.856,2.968,2.7,2.7,0,0,1-.9,2.1,2.861,2.861,0,0,1-1.96.812,2.925,2.925,0,0,1-2.016-.812A2.7,2.7,0,0,1,90.22,33.88ZM95.372,63H90.724V42h4.648Zm9.352-34.664h4.648V41.5h5.488v4.536h-5.488V63h-4.648V46.032h-4.7V41.5h4.7Zm16.8,0h4.648V41.5h5.488v4.536h-5.488V63h-4.648V46.032h-4.7V41.5h4.7ZM141.908,77H137.26q1.792-3.528,3.528-7t3.528-7L133.732,42h4.648q2.072,4.088,4.452,8.316a50.048,50.048,0,0,1,3.836,8.54q.728-2.128,1.708-4.284t2.1-4.256q1.12-2.1,2.268-4.2T154.9,42h4.648q-4.424,8.792-8.82,17.5T141.908,77Zm19.6-30.968V41.5h3.584V34.048a13.919,13.919,0,0,1,1.036-5.544,11.758,11.758,0,0,1,2.828-4.06,12.108,12.108,0,0,1,4.284-2.52,18.359,18.359,0,0,1,5.348-.98v4.424a10.063,10.063,0,0,0-6.356,2.464,8.14,8.14,0,0,0-2.492,6.384V41.5h6.552v4.536H169.74V63h-4.648V46.032Zm30.352,0A6.637,6.637,0,0,0,188,47.152a6.054,6.054,0,0,0-2.3,2.912,9.089,9.089,0,0,0-.392,1.96q2.632-.952,5.236-1.932t5.236-1.932a6.849,6.849,0,0,0-1.764-1.54A4.112,4.112,0,0,0,191.86,46.032Zm9.856,4.76q-3.808,1.4-7.588,2.8t-7.588,2.8a6.035,6.035,0,0,0,2.212,1.876,6.741,6.741,0,0,0,3.108.7,5.582,5.582,0,0,0,4.256-1.792l2.856,3.36a10.341,10.341,0,0,1-3.192,2.184,9.673,9.673,0,0,1-3.92.784,11.164,11.164,0,0,1-7.952-3.248,11.293,11.293,0,0,1-2.38-3.5,10.937,10.937,0,0,1,0-8.54,10.873,10.873,0,0,1,2.38-3.5,11.358,11.358,0,0,1,3.556-2.352,11.129,11.129,0,0,1,4.4-.868,8.209,8.209,0,0,1,3.332.7,9.531,9.531,0,0,1,2.856,1.932,12.773,12.773,0,0,1,2.212,2.94A15.163,15.163,0,0,1,201.716,50.792Zm15.4-4.76a6.637,6.637,0,0,0-3.864,1.12,6.054,6.054,0,0,0-2.3,2.912,9.089,9.089,0,0,0-.392,1.96q2.632-.952,5.236-1.932t5.236-1.932a6.849,6.849,0,0,0-1.764-1.54A4.112,4.112,0,0,0,217.116,46.032Zm9.856,4.76q-3.808,1.4-7.588,2.8t-7.588,2.8a6.035,6.035,0,0,0,2.212,1.876,6.741,6.741,0,0,0,3.108.7,5.582,5.582,0,0,0,4.256-1.792l2.856,3.36a10.341,10.341,0,0,1-3.192,2.184,9.673,9.673,0,0,1-3.92.784,11.164,11.164,0,0,1-7.952-3.248,11.293,11.293,0,0,1-2.38-3.5,10.937,10.937,0,0,1,0-8.54,10.873,10.873,0,0,1,2.38-3.5,11.358,11.358,0,0,1,3.556-2.352,11.129,11.129,0,0,1,4.4-.868,8.209,8.209,0,0,1,3.332.7,9.531,9.531,0,0,1,2.856,1.932,12.773,12.773,0,0,1,2.212,2.94A15.163,15.163,0,0,1,226.972,50.792Zm9.632,1.68a6.379,6.379,0,0,0,1.82,4.62,6.906,6.906,0,0,0,9.464,0,6.379,6.379,0,0,0,1.82-4.62,6.26,6.26,0,0,0-1.82-4.62,7.062,7.062,0,0,0-9.464,0A6.26,6.26,0,0,0,236.6,52.472Zm-4.7,0a10.451,10.451,0,0,1,.868-4.228,11.293,11.293,0,0,1,2.38-3.5,11.04,11.04,0,0,1,3.584-2.38,11.333,11.333,0,0,1,4.424-.868,8.984,8.984,0,0,1,2.8.42,12.623,12.623,0,0,1,2.24.952,9.593,9.593,0,0,1,1.512,1.008q.56.476.56.644a8.248,8.248,0,0,0-.28-.9,8.248,8.248,0,0,1-.28-.9V21h4.648V63h-4.088V60.7q0,.168-.5.616a7.254,7.254,0,0,1-1.4.924,12.148,12.148,0,0,1-2.212.868,10.5,10.5,0,0,1-3,.392,11.333,11.333,0,0,1-4.424-.868,11.04,11.04,0,0,1-3.584-2.38,11.2,11.2,0,0,1-2.38-3.528A10.649,10.649,0,0,1,231.9,52.472Zm28.672,7.616a2.791,2.791,0,0,1,.9-2.128,2.874,2.874,0,0,1,2.016-.84,2.966,2.966,0,0,1,2.856,2.968,2.7,2.7,0,0,1-.9,2.1,2.861,2.861,0,0,1-1.96.812,2.926,2.926,0,0,1-2.016-.812A2.7,2.7,0,0,1,260.572,60.088ZM275.3,52.472a6.379,6.379,0,0,0,1.82,4.62,6.906,6.906,0,0,0,9.464,0,6.379,6.379,0,0,0,1.82-4.62,6.26,6.26,0,0,0-1.82-4.62,7.062,7.062,0,0,0-9.464,0A6.26,6.26,0,0,0,275.3,52.472Zm-4.7.056a10.513,10.513,0,0,1,.868-4.2,11.2,11.2,0,0,1,2.38-3.528,11.419,11.419,0,0,1,3.584-2.408,11.026,11.026,0,0,1,4.424-.9,8.469,8.469,0,0,1,2.8.448,14.106,14.106,0,0,1,2.24.98A8.415,8.415,0,0,1,288.4,43.96q.56.5.56.672a7.838,7.838,0,0,1,.112-1.288A8.161,8.161,0,0,0,289.188,42h3.864V63h-4.088V60.7q0,.168-.5.616a7.255,7.255,0,0,1-1.4.924,12.148,12.148,0,0,1-2.212.868,10.5,10.5,0,0,1-3,.392,11.333,11.333,0,0,1-4.424-.868,11.04,11.04,0,0,1-3.584-2.38,11.294,11.294,0,0,1-2.38-3.5A10.451,10.451,0,0,1,270.6,52.528Zm28.56-18.648a2.791,2.791,0,0,1,.9-2.128,2.874,2.874,0,0,1,2.016-.84,2.966,2.966,0,0,1,2.856,2.968,2.7,2.7,0,0,1-.9,2.1,2.861,2.861,0,0,1-1.96.812,2.925,2.925,0,0,1-2.016-.812A2.7,2.7,0,0,1,299.156,33.88ZM304.308,63H299.66V42h4.648Z" transform="translate(1143 220)"/>
  </g>
</svg>
